<?xml version="1.0" encoding="UTF-8"?>
<svg id="_图层_1" data-name="图层 1" xmlns="http://www.w3.org/2000/svg" viewBox="0 0 1768.85 1742.1">
  <defs>
    <style>
      .cls-1 {
        fill: #f9f2d2;
      }

      .cls-1, .cls-2, .cls-3, .cls-4, .cls-5, .cls-6 {
        stroke-width: 0px;
      }

      .cls-2 {
        fill: #f7efd0;
      }

      .cls-3 {
        fill: #ae5422;
      }

      .cls-4 {
        fill: #c1d890;
      }

      .cls-5 {
        fill: #bbd18e;
      }

      .cls-6 {
        fill: #f3d453;
      }
    </style>
  </defs>
  <path class="cls-6" d="m903.47,0c25.7.48,65.5,4.59,104.99,12.64,29.11,5.93,57.88,12.97,85.77,23.06,38.44,13.91,75.42,31.06,110.6,52.06,25.68,15.32,49.95,32.53,72.9,51.65,19.82,16.51,39.26,33.49,56.61,52.61,29.96,33.02,56.74,68.42,78.26,107.6,6.07,11.04,11.85,22.24,17.61,33.44,1.1,2.14,2.81,3.09,4.77,4.05,27.01,13.19,52.96,28.24,77.86,45.03,17.48,11.79,33.98,24.94,50.08,38.55,37.49,31.7,70.68,67.37,98.71,107.72,15.79,22.73,30.14,46.4,42.27,71.28,10.9,22.36,21.44,44.94,29.56,68.49,6.85,19.87,12.97,39.99,18.2,60.37,9.04,35.23,13.78,71.05,16.01,107.32,1.93,31.35,1.4,62.64-1.09,93.88-2.17,27.24-6.93,54.14-13.07,80.78-8.14,35.33-19.7,69.54-34.45,102.6-14.89,33.36-32.27,65.36-53.15,95.49-34.02,49.07-73.33,93.18-120.07,130.43-32.25,25.7-66.29,48.79-103.19,67.36-6.33,3.19-10.39,7.36-13.35,13.73-16.4,35.19-36.95,67.91-61.27,98.11-33.72,41.88-72.3,78.93-116.14,110.02-56.01,39.72-117.01,69.42-183.36,88.05-33.92,9.52-68.09,17.41-103.09,21.51-40.16,4.71-80.44,4.97-120.78,3.4-22.18-.86-44.18-3.55-66.03-7.01-22.52-3.56-44.82-8.44-66.81-14.63-24.4-6.86-48.39-14.86-71.92-24.27-40.71-16.29-78.52-37.94-114.96-62.09-35.31-23.4-66.7-51.48-96.24-81.65-9.51-9.72-17.58-20.83-26.52-31.09-12.95-14.86-23.57-31.25-34.17-47.74-12.06-18.77-22.87-38.21-32.05-58.53-1.9-4.2-5.33-6.37-9.06-8.15-31.38-15.06-59.71-34.93-88.11-54.8-31.15-21.79-57.93-48.23-83.66-75.9-30.78-33.1-56.25-70.06-79.2-108.87-19.09-32.28-32.73-66.92-44.91-102.23-17.07-49.47-26.22-100.43-29.72-152.56-3.13-46.61-.58-92.85,6.93-138.94,5.8-35.62,14.39-70.53,26.6-104.42,11.46-31.81,25.85-62.34,42.28-92.03,34.26-61.92,79.39-114.74,132.94-160.35,37.16-31.65,78.1-57.97,122.45-78.69,2.22-1.04,3.84-2.19,4.94-4.52,19.57-41.33,44.19-79.51,73.26-114.71,57.57-69.69,127.38-123.64,209.46-161.74,47.46-22.03,97.11-36.78,148.43-46.19C808.37,2.82,848.53-.2,903.47,0Zm384.31,1523.85c1.73-1.56,3.51-3.06,5.18-4.68,21.35-20.73,38.8-44.66,55.92-68.82,3.23-4.56,6.76-9.13,7.94-14.87,1.65-.98,2.51-2.59,3.39-4.19,5.04-9.14,10.22-18.21,15.09-27.44,1.91-3.62,5.1-6.6,5.67-10.91,1.96-1.41,3.05-3.48,4.17-5.52,6.91-12.58,16.48-22.41,29.48-28.78,14.78-7.24,28.92-15.66,43.18-23.86,3.11-1.79,6.75-3.07,8.18-6.9,2.05-.23,3.76-1.19,5.39-2.38,11.24-8.22,22.48-16.44,33.74-24.63,1.01-.74,1.73-1.51,1.7-2.81,2.03-.38,3.58-1.54,5.12-2.87,5.4-4.65,10.98-9.1,16.33-13.8,12.81-11.24,25.83-22.29,36.64-35.6,20.51-20.64,38.34-43.51,54.82-67.36,30.9-44.73,53.85-93.38,69.6-145.43,11.81-39.03,19.7-78.86,22.69-119.52,3.03-41.32,1.83-82.55-4.91-123.55-4.6-27.97-10.4-55.63-18.94-82.69-12.03-38.1-27.44-74.66-47.67-109.22-27.37-46.76-60.13-88.99-100.58-125.3-20.32-18.24-41.54-35.17-64.28-50.17-20.91-13.79-42.51-26.47-65.35-36.87-13.58-6.18-23.08-15.78-29.48-29.48-7.21-15.42-15.58-30.3-24.6-44.83-15.52-25.02-33.04-48.6-52.03-70.95-15.39-18.11-32.36-34.82-50.64-50.25-30.54-25.78-62.91-48.68-98.05-67.77-20.15-10.95-40.91-20.51-62.12-29.1-30.97-12.53-62.85-21.85-95.8-27.76-25.44-4.56-50.89-8.96-76.71-10.14-62.61-2.86-124.4,2.2-185.33,18.04-48.75,12.68-94.98,31.05-138.18,56.79-32.84,19.58-63.32,42.39-91.54,68.35-28.08,25.84-53.48,53.93-75.76,84.83-17.68,24.52-32.64,50.7-45.77,77.91-5.09,10.55-12.79,17.81-23.47,22.7-40.68,18.64-78.01,42.59-112.01,71.74-47.69,40.88-88.97,87.15-120.07,142.03-14.65,25.85-26.58,52.91-37.52,80.54-10.6,26.77-18.19,54.32-23.98,82.34-5.15,24.95-8.15,50.28-9.86,75.75-3.59,53.38.2,106.26,11.25,158.52,8.82,41.71,22.98,81.68,42.15,119.85,23.96,47.7,54.17,90.96,91.19,129.44,6.28,8.82,14.41,15.86,22.31,23.12,10.94,10.05,21.51,20.51,33.49,29.37,13.26,10.88,26.54,21.72,41.39,30.42.78,2.51,3.09,3.37,5.03,4.57,16.79,10.44,34.56,19.12,51.78,28.8,11.66,6.55,20.99,14.99,26.27,27.51.83,1.96,2.22,3.67,3.35,5.5.75,3.33,3.02,5.86,4.65,8.72,6.22,10.92,12.58,21.75,18.89,32.62-.26,2.22,1.2,3.74,2.28,5.39,14.44,22.2,30.76,43,48,63.05,6.46,7.51,12.5,15.63,21.29,20.83,2.64,4.76,6.95,8.01,10.8,11.62,25.74,24.08,53.4,45.63,83.42,64.19,24.21,14.97,48.94,28.9,75,40.4.63,1.79,2.23,2.31,3.78,2.97,18.38,7.87,37.48,13.76,56.45,19.88,24.39,7.86,49.55,12.89,74.82,17.29,26.76,4.67,53.7,7.47,80.83,8.03,24.95.51,49.87.33,74.75-2.66,23.28-2.8,46.58-5.32,69.49-10.48,33.16-7.46,65.42-17.9,97.2-29.83,3.09-1.16,6.32-2.46,6.85-6.47,1.8.98,3.39,1.34,5.56.31,50.28-23.88,98.04-51.69,139.97-88.75,9.72-8.59,19.39-17.23,28.18-26.79Z"/>
  <path class="cls-3" d="m201.95,1244.25c-37.02-38.48-67.23-81.73-91.19-129.44-19.17-38.17-33.33-78.14-42.15-119.85-11.05-52.26-14.84-105.15-11.25-158.52,1.71-25.47,4.71-50.8,9.86-75.75,5.79-28.03,13.38-55.57,23.98-82.34,10.94-27.63,22.88-54.69,37.52-80.54,31.1-54.88,72.38-101.15,120.07-142.03,34-29.15,71.33-53.1,112.01-71.74,10.68-4.89,18.38-12.15,23.47-22.7,13.13-27.21,28.1-53.39,45.77-77.91,22.28-30.9,47.68-59,75.76-84.83,28.22-25.97,58.69-48.78,91.54-68.35,43.2-25.75,89.43-44.12,138.18-56.79,60.92-15.84,122.72-20.9,185.33-18.04,25.82,1.18,51.27,5.57,76.71,10.14,32.95,5.91,64.83,15.22,95.8,27.76,21.22,8.59,41.98,18.15,62.12,29.1,35.13,19.09,67.51,41.99,98.05,67.77,18.28,15.43,35.25,32.15,50.64,50.25,19,22.35,36.51,45.93,52.03,70.95,9.02,14.53,17.39,29.41,24.6,44.83,6.4,13.7,15.91,23.29,29.48,29.48,22.83,10.4,44.44,23.08,65.35,36.87,22.74,15,43.96,31.93,64.28,50.17,40.45,36.32,73.21,78.55,100.58,125.3,20.23,34.56,35.64,71.12,47.67,109.22,8.54,27.06,14.34,54.72,18.94,82.69,6.74,41,7.95,82.23,4.91,123.55-2.98,40.65-10.88,80.48-22.69,119.52-15.75,52.04-38.7,100.69-69.6,145.43-16.48,23.86-34.32,46.73-54.82,67.36-8.13-4.47-16.63-8.15-25.16-11.78-37.65-16.03-76.95-26.09-117.44-31.28-33.11-4.24-66.37-5.49-99.72-2.48-35.42,3.2-70.28,9.27-104.2,20.16-33.21,10.66-65.91,22.55-95,42.45-2.05,1.4-3.5.8-5.41-.32-9.19-5.4-18.24-11.08-27.76-15.83-57.29-28.61-118.19-43.96-181.96-47.47-61.99-3.41-122.39,5.76-181.12,25.81-27.83,9.5-54.79,20.86-79.08,37.78-2.01,1.4-3.7,1.44-5.91.06-6.5-4.06-12.99-8.17-19.81-11.64-46.55-23.66-95.63-39.49-147.3-47.25-43.43-6.53-86.88-7.17-130.48-1.43-33.3,4.38-65.95,11.29-97.66,22.43-15.41,5.41-30.55,11.45-44.94,19.25Zm939.63-137.08c3.26-1.34,6.53-2.68,9.79-4.02,1.36-.96,2.72-1.91,4.08-2.87.98-.67,1.96-1.35,2.93-2.02,19.24-13.54,29.82-31.64,29.12-55.59-.09-3.26,1.58-3.8,4.2-4.18,22.32-3.24,40.07-13.94,53.22-32.4,16.94-23.77,13.2-63.51-11.14-79.75-2.89-1.93-3-3.36-.44-6.05,10.3-10.8,15.93-24.04,16.37-38.76.67-22.26-8.31-40.46-25.83-54.39-10.8-8.59-22.67-14.86-36.25-17.72-3.7-.78-5.78.01-5.67,4.33.23,8.82-2.81,16.98-6.19,24.83-7.31,16.93-19.45,29.7-35.6,38.56-3.11,1.71-4.08,3.15-2.1,6.55,3.45,5.95,5.24,12.56,6.64,19.29,4.21,20.38,1.66,40.03-8.82,57.82-12,20.37-30.24,33.84-52.43,41.89-2.64.96-4.22,2.33-4.47,5.26-1.77,21.11-12.06,38.21-25.46,53.83-4.77,4.29-9.55,8.59-14.32,12.88-.2.03-.32.14-.38.33-.72.54-1.44,1.07-2.16,1.61-2.62,1.97-5.16,4.05-7.86,5.9-18.77,12.81-39.13,22.33-60.63,29.62-18.26,6.2-36.96,10-56.16,11.31-6.47.44-13.02.92-19.26-1.57-4.3-1.72-6.63-5.02-6.84-9.58-.2-4.37,2.47-7.07,6.07-8.97,1.92-1.01,3.98-1.71,6.19-1.82,19.76-1.02,39-5.02,57.72-11.15,24.16-7.92,47.21-18.2,67.39-34.15,18.49-14.6,32.01-32.09,33.43-56.61.44-7.56,4.57-11.78,10.86-14.68,3.02-1.4,6.03-2.86,9.14-4.05,9.78-3.75,18.42-9.32,26.11-16.35,17.68-16.17,24.64-35.82,19.1-59.52-1.72-7.38-4.94-14.08-8.15-20.86-4.13-8.72-2.91-13.16,4.72-19.09,4.21-3.26,8.72-6.13,13.03-9.26,17.38-12.62,27.85-29.16,29.13-51.02,1-16.96-5.49-30.56-18.85-40.54-5.53-4.13-9.4-6.85-9.79-15.44-1.34-29.32-16.62-51.21-42.94-63.41-29.68-13.76-59.86-13.56-87.18,6.44-8.11,5.94-13.24,5.63-20.97.54-25.35-16.68-56.47-8.37-73.88,9.07-5.92,5.94-10.75,12.74-14.78,20.05-2.27,4.1-4.48,4.78-8.65,2.4-14.56-8.31-29.74-9.42-45.74-4.01-29.97,10.12-47.09,36.99-42.38,67.9.74,4.86.05,6.96-5.15,8.29-34.69,8.92-51.17,43.65-42.17,78.9,4.49,17.58,16.3,30.44,30.41,41.2,2.25,1.72,3.05,2.93,1.8,5.66-3.14,6.89-5.56,14-7.56,21.36-8.7,32.07-14.23,64.32-9.58,97.73,3.49,25.11,14.66,45.53,35.91,59.52,14.82,9.75,29.65,19.11,42.63,31.54,18.36,17.57,41.18,26.59,66.58,26.93,23.09.31,45.7-4.63,67.86-10.74,13.79-3.81,26.89-9.78,39.76-16.24,17.18-8.62,32.97-19.12,47.09-32.1,2.28-2.09,4.14-2.54,7.06-1.32,7.96,3.33,15.67,7.32,24.1,9.44,4.5,2.71,9.61,1.94,14.48,2.53,2.16.13,4.33.26,6.49.39,1.5.45,3,.41,4.49-.05,1.16-.08,2.32-.16,3.48-.24,6.25.45,12.32-.12,17.97-3.11.21.03.36-.05.45-.25Zm-818.59-291.54c-9.16-.83-18.19-.64-27.28,1.51-52.28,12.33-74.88,54.06-73.14,98.92.91,23.42,7.46,45.48,16.55,67.01,11.07,26.23,24.34,51.12,41.76,73.68,26.15,33.89,56.01,63.82,93.09,85.86,24.58,14.61,50.51,24.86,79.85,23.02,21.15-1.33,39.59-8.54,53.37-25.38,1.74-2.12,3.46-2.78,6.04-2.05,12.54,3.51,25.35,4,38.17,2.46,36.89-4.43,64.52-21.84,78.72-57.4,1.46-3.65,3.36-4.85,7.05-4.53,9.96.85,19.18-1.89,27.77-6.67,16.31-9.08,28.32-22.37,37.24-38.64,9.75-17.79,11.91-37.42,12.77-57.04,1.3-29.98-4.26-59.17-11.36-88.27-6.34-25.98-16.18-50.43-27.48-74.46-10.21-21.7-23.18-41.6-38.21-60.31-9.43-11.74-19.75-22.54-31.91-31.2-15.62-11.12-32.86-18.91-52.25-21.29-15.02-1.84-29.94-1.96-44.7,1.55-20.92,4.97-38.17,16.04-52.47,32.03-3.68,4.12-7.41,8.03-9.51,13.23-1.79,4.44-1.27,5.25,3.58,4.9,11.72-.85,23.37-.47,34.66,3.04,26.72,8.31,49.65,23.1,68.24,43.68,22.38,24.77,41.34,52.06,56.98,81.78,22.17,42.12,35.53,86.73,41.37,133.77,1.07,8.63,1.09,17.31-.51,25.9-1.09,5.89-7.17,11.09-12.16,10.77-5.25-.34-8.66-4.78-9.08-11.84-.1-1.66-.11-3.33-.16-5-.55-19.45-4.6-38.37-9.53-57.03-6.47-24.49-15.53-48.1-26.23-71.09-18.09-38.88-41.11-74.31-72.7-103.68-13.51-12.56-29.06-21.92-47.13-26.12-31-7.19-60-1.06-86.39,15.98-33.02,21.33-49.17,51.5-45.07,91.45,2.56,24.93,9.92,48.39,19.79,71.37,21.26,49.52,51.22,92.89,89.68,130.52,9.67,9.47,20.44,17.59,30.92,26.07,3.06,2.47,5.55,5.69,3.7,10-1.95,4.55-5.74,6.86-10.65,6.98-4.27.11-8.12-1.44-11.81-3.55-23.25-13.27-41.75-32.09-58.76-52.2-29.12-34.41-52.29-72.58-69.9-114.21-10.77-25.47-17.52-51.63-18.22-79.27-.54-21.31,2.03-41.92,14.86-59.95,11.01-15.89,22.25-31.58,38.84-42.34,2.54-1.65,2.75-3.48,1.09-5.83-2.79-3.94-5.28-8.12-8.34-11.83-29.14-35.24-79.71-51.3-124.11-33.7-5.14,2.04-10.85-1.05-13.7-7-2.64-5.51-1.48-9.12,3.93-12.63,2.41-1.57,5.05-2.57,7.76-3.38,25.83-7.73,52.02-8.27,77.77-.96,32.45,9.2,56.97,29.61,74.8,58.04,2.28,3.64,4.25,4.58,7.96,2.58,6.21-3.35,13.04-4.97,19.8-6.79,5.64-1.53,6-2.18,2.65-6.94-15.35-21.8-32.76-41.82-55.14-56.57-35.68-23.52-74.98-30.85-117.01-23.59-13.86,2.39-27.39,6.06-39.21,14.06-8.84,5.98-15.53,13.75-16.68,24.9-1.52,14.68,2.92,27.75,12.13,39,8.9,10.87,20.37,14.88,34.37,11.39,6.5-1.62,12.65-4.17,19.05-5.98,28.61-8.09,53.65-1.61,75.07,18.79,6.25,5.95,6.17,7.58.91,14.26-7.01,8.9-11.33,18.76-11.49,30.23ZM872.18,164.12c-5.28-.02-7.24.69-11.88,5.27-27.52,27.13-49.78,57.76-61.82,94.94-12.2,37.65-11.03,74.68,5.55,111.01,8.27,18.13,20.91,33.48,31.04,50.43,8.54,14.29,18.21,28.05,23,44.18,7.64,25.76,7.77,51.56-.81,77.28-4.34,13.03-9.92,25.41-17.09,37.11-5.09,8.29-11.62,15.64-15.93,24.44-3.08,6.29-2.18,12.42,2.68,16.86,7.21,6.58,16.26,4.58,23.71-2.43,12.46-11.71,23.07-25.07,31.75-39.85,10.07-17.13,17.41-35.2,20.99-54.97,3-16.57,3.38-32.98,1.5-49.57-2.82-24.79-15-45.84-27.51-66.56-4.73-7.83-10.33-15.26-15.68-22.77-11.34-15.93-20.45-33.03-24.99-52.09-8.24-34.55-1.69-67.38,13.17-98.94,6.67-14.16,16.31-26.39,25.98-38.59,4.01-5.07,8.21-10.14,10.27-16.44,3.22-9.88-3.6-19.26-13.92-19.3Zm-154.47,130.1c-5.05.1-9.08,1.88-12.39,5.22-24.26,24.5-43.27,52.03-48.77,86.98-2.53,16.08-2.65,32.36,1.58,48.14,6.22,23.21,18.12,43.63,33.59,61.88,12.77,15.06,23.06,31.38,27.47,50.83,5.96,26.31,1.56,51.26-10.68,75.03-6.27,12.17-13.18,23.86-22.57,34.03-6.06,6.56-6.21,12.7-1.56,18.43,4.86,5.98,12.57,7.26,19.86,3.11,2.15-1.23,4.23-2.72,6.01-4.44,11.02-10.68,21.47-21.85,29.5-35.07,11.82-19.45,20.16-40.26,22.74-62.9,3.26-28.65-4.82-54.78-20.5-78.58-8.24-12.51-17.46-24.37-25.97-36.71-9.04-13.11-16.96-27.02-19.4-42.92-4.71-30.7,2.4-58.86,20.55-84.12,3.89-5.41,8.06-10.61,11.98-15.99,3.43-4.72,3.99-9.96,1.32-15.1-2.66-5.13-7.32-7.54-12.77-7.81Zm254.1,317.18c-.01,10.43,10.84,17.09,20.35,12.65,5.07-2.37,8.98-6.34,12.86-10.2,21.04-20.92,35.37-45.81,41.9-74.72,4.46-19.74,4.63-39.71-3.28-58.9-5.66-13.73-12.74-26.76-21.4-38.87-7.85-10.97-16.26-21.55-23.32-33.06-16.71-27.24-19.98-55.92-8.79-86.04,5.94-15.97,15.62-29.69,26-42.97,5.81-7.44,5.84-14.84-.1-20.57-6.06-5.85-14.06-5.74-20.99.65-4.28,3.94-8.24,8.23-12.21,12.5-13.1,14.12-23.23,30.16-30.72,47.89-3.58,8.47-5.37,17.32-6.66,26.39-2.56,18.07-1.28,35.86,3.76,53.27,4.46,15.4,13.44,28.58,22.54,41.53,8.6,12.24,19.33,22.9,26.6,36.17,13.53,24.69,13.87,50.19,5.11,76.28-6.05,18.04-15.83,34.02-27.73,48.77-2.19,2.71-4.33,5.58-3.92,9.2Zm374.77,264.69c0-6.33.1-12.66-.03-18.99-.13-6.49-.29-13-.77-19.47-.79-10.63-1.67-21.26-2.88-31.84-.87-7.64-5.58-10.63-13.08-8.92-6.63,1.5-10.79,6.97-10.34,13.84.84,12.96,2.09,25.9,2.6,38.88,1,25.84-.45,51.6-2.87,77.34-2.36,25.06-5.65,49.99-10.51,74.66-4.67,23.69-10.49,47.09-18.9,69.83-8.77,23.71-15.63,48.16-29.29,69.84-3.97,6.31-2.78,11.08,2.85,15.27,5.29,3.93,10.86,3.49,15.77-1.29,2.54-2.47,4.23-5.54,5.95-8.59,9.94-17.64,17.95-36.14,24.58-55.26,5.08-14.63,10.11-29.28,14.26-44.2,9.97-35.79,16.41-72.26,20.03-109.21,2.01-20.56,2.8-41.21,2.64-61.88Zm152.33,99.27c-19.09,1.05-35.96,6.87-50.31,19.14-9.49,8.11-16.26,18.11-19.24,30.27-2.2,8.98,1.48,14.76,10.28,17.67,4.68,1.55,9.46,1.71,14.32,1.05,25.23-3.43,43.75-17.07,57.77-37.71,3.17-4.67,5.62-9.65,7.41-14.96,1.63-4.87.09-8.88-4.29-11.51-5.02-3.02-10.61-3.75-15.93-3.94Zm-107.54-264.59c.33-5.43-.32-10.71-1.1-16-2.05-13.95-8.58-17.83-20.65-10.65-29.31,17.44-39.71,39.19-37.37,69.46.37,4.81,1.53,9.56,4.19,13.74,5.06,7.97,10.34,9.76,19.13,6.43,7.65-2.9,14.06-7.56,19.15-13.97,11.41-14.37,17.14-30.68,16.65-49.02Zm91.64,251.76c7.41.02,14.79-1.2,21.31-4.38,21.93-10.67,36.18-28.19,43.53-51.36,2.59-8.16-.45-12.57-8.75-14.17-34.47-6.66-63.37,18.46-73.29,45.63-5.79,15.86.47,24.19,17.2,24.28Zm-250.2-501.52c.06-4.55-.14-7.85-.91-11.13-4.36-18.71-15.45-32.4-31.85-41.77-7.44-4.25-15.46-7.63-24.18-8.5-10.29-1.02-15.76,4-15.79,14.31-.02,6.24,1.53,12.24,3.34,18.12,7.96,25.98,25.71,41.32,51.98,46.99,8.08,1.75,15.67-4.04,16.91-12.27.35-2.3.4-4.64.49-5.76Zm9.19,178.08c-3.73-.4-7.96.37-11.94,2.19-3.71,1.69-6.48,4.28-5.88,8.84.88,6.61,2.19,13.18,5.39,19.08,13.41,24.75,34.75,36.2,62.44,36.55,12.97.17,18.31-6.69,15.37-19.2-6.66-28.3-33.33-47.87-65.37-47.46Zm20,75.37c-3.04-.24-5.94-.24-8.97.31-10.71,1.95-13.06,5.33-10.52,16.05,2.41,10.2,7.49,19.29,13.36,27.68,9.76,13.95,23.49,22.56,40.15,26.48,4.97,1.17,9.8,1.59,14.78.32,7.66-1.94,11.67-7,11.18-14.85-.72-11.55-4.16-22.26-11.28-31.48-12.3-15.91-29.11-23.05-48.7-24.51Zm291.59,90.64c-16.13-.04-33.78,8.09-46.7,21.82-9.72,10.33-16.44,22.24-17.45,36.7-.67,9.6,4.99,15.8,14.57,16.6,3.87.32,7.62-.16,11.37-1.1,27.99-7.06,49.34-35.11,53.22-62.36.67-4.72-2.02-8.84-6.64-10.52-2.7-.98-5.53-1.16-8.38-1.14Zm-252.76-320.04c.42-9.09-3.18-19.05-8.04-28.61-2.85-5.61-6.28-10.88-11.2-15.03-5.59-4.73-10.5-4.89-15.75.1-22.34,21.26-25.24,54.76-9.01,78.6,10.8,15.87,20.74,18.34,34.82,0,7.35-9.58,9.05-21.29,9.17-35.06Zm69.58,148.6c-.69-9.53-1.51-19.09-5.07-28.24-3.76-9.69-10.02-12.07-19.2-6.8-6.13,3.52-11.31,8.3-15.79,13.65-16.15,19.29-22.25,40.68-12.16,64.86,5.98,14.33,15.13,16.62,27.37,7.07,16.36-12.77,24.08-29.89,24.85-50.54Zm56.4,354.83c-.8-17.19-8.85-33.12-22.74-46.22-3.65-3.45-8.19-5.74-13.11-7-7.57-1.94-13.06,1.05-15.53,8.42-5.53,16.51-6.66,33.03-1.54,50.02,3.66,12.13,10.65,21.67,20.26,29.35,8.35,6.67,18.47,4.61,24.62-4.01,6.1-8.56,7.55-18.31,8.03-30.55Zm78.2-207.08c-.27,11.28,5.68,17.48,16.94,17.52,2.14,0,4.32-.3,6.42-.76,28.34-6.25,46.44-33.22,48.77-62.31.95-11.94-4.08-16.14-16.04-15.59-28.43,1.31-55.24,33.23-56.08,61.15Zm-86.59,33.11c.27,5.42.76,12.56,3.23,19.38,5.73,15.84,16.64,27.5,30.25,36.79,12.28,8.38,21.67,5.02,26.44-9.14.53-1.57.97-3.21,1.14-4.85,2.63-25.32-6.7-45.61-26.41-61.19-5.94-4.7-13.06-7.23-20.87-7.26-6.51-.02-9.88,2.42-11.57,8.74-1.38,5.17-2.1,10.43-2.21,17.52Zm-76.98-254.22c.31-16.47-3.99-31.91-10.33-41.47-4.55-6.86-11.38-8.51-17.83-3.22-21.47,17.63-33.72,45.69-22.78,75.41,1.8,4.88,4.83,9.12,8.61,12.71,4.43,4.21,10.28,4.99,14.95,2.22,18.89-11.21,26.5-28.65,27.39-45.64Zm57.81,333.81c-.12,21.69,10.69,41.71,28.83,53.42,12.59,8.13,21.75,5.26,26.83-8.5,6.56-17.8,2.76-34.44-6.32-50.19-6.81-11.81-16.33-20.81-29.57-25.3-8.28-2.81-13.5-.19-16.19,8-2.4,7.34-3.62,14.85-3.57,22.56Zm-136.2-265.94c2.29-.19,5.33-.14,8.24-.73,9.55-1.92,15.08-8.16,13.87-15.88-1.28-8.19-4.65-15.78-10.03-21.94-18.12-20.72-41.31-27-67.9-22.49-7.66,1.3-9.98,4.42-8.63,12.13,1.31,7.46,4.72,14,9.23,20.15,13.55,18.49,31.86,27.61,55.23,28.75Zm-74.18-134.46c-5.88.24-11.74.11-17.34,2.11-8.31,2.97-10.76,8.06-6.94,16,11.81,24.53,30.44,39.94,58.28,42.76,7.74.79,14.93-1.06,21.72-4.41,6.56-3.24,8.46-8.31,6.4-15.42-1.45-5-3.67-9.65-6.63-13.92-13.44-19.42-32.97-26.35-55.49-27.13Zm306.04,275.84c.53-24.92-19.36-51.27-43.28-57.33-9.16-2.32-14.33.67-16.8,9.75-2.51,9.22-2.28,18.39.13,27.63,5.59,21.39,18.08,36.77,38.97,44.69,8.48,3.22,16.1-.81,18.88-9.46,1.6-4.97,2.04-10.1,2.09-15.28Zm-78.2,287.9c.12-7.42-2.27-10.62-8.89-12.39-6.42-1.72-10.16.17-15.6,7.8-9.04,12.68-17.83,25.59-28.04,37.34-14.72,16.93-29.17,34.12-45.06,50.01-4.91,4.91-5.01,7.66-1.56,12.72,3.94,5.77,8.25,7.24,14.06,4.98,7.46-2.9,12.31-9.12,17.5-14.55,12.18-12.72,24.18-25.65,34.95-39.65,5.7-7.4,12.36-14.01,17.3-22.05,3.7-6.01,7.83-11.8,12.26-17.29,1.89-2.34,3.49-4.34,3.06-6.93Zm101.68-394.4c-.36-24.34-1.89-48.6-4.61-72.79-.42-3.74-1.45-7.18-3.85-10.1-2.58-3.13-5.71-5.16-10.01-4.16-4.32,1.01-6.91,3.81-8,8.04-.94,3.63-.61,7.27-.15,10.92,2.25,18.02,3.86,36.11,4.69,54.25.87,18.97,1.54,37.96.26,56.95-.31,4.56,1.31,8.26,5.8,10.05,4.52,1.81,8.43.55,11.89-2.74,2.75-2.61,3.48-5.86,3.81-9.46,1.24-13.65.25-27.31.18-40.96Zm52.42-3.58c.22-14.33-.39-28.64-1.8-42.91-.74-7.46-4.65-12.25-10.35-12.66-8.67-.62-13.91,5.56-12.53,15.27,3.24,22.83,3.74,45.78,3.25,68.78-.06,2.65-.08,5.37.45,7.94,1.07,5.2,5.59,8.05,10.84,7.24,6.14-.95,10.01-5.21,10.11-11.69.15-10.66.04-21.32.04-31.98Zm-105.28-2.34c-.86-13.79-1.68-27.58-2.61-41.36-.17-2.48-.52-4.99-1.17-7.37-1.49-5.41-4.51-7.69-9.63-7.65-6.26.05-8.68,1.91-10.32,7.85-.63,2.3-.5,4.63-.34,6.95.79,11.45,1.61,22.9,2.43,34.35.85,11.8.58,23.63.87,35.44.19,8.03,5.17,11.8,12.91,10.29,4.88-.95,7.38-3.79,7.94-10.06.83-9.47.58-18.96-.07-28.44Z"/>
  <path class="cls-3" d="m649.9,1640.36c-26.06-11.5-50.79-25.42-75-40.4-30.02-18.57-57.69-40.11-83.42-64.19-3.86-3.61-8.17-6.85-10.8-11.62,9.51,2.45,19,4.99,28.54,7.33,36.4,8.93,69.9,24.77,102.52,42.77,9.61,5.31,18.36,11.92,27.52,17.89,3.97,2.59,7.27,2.31,10.7-.5,10.24-8.39,21.56-15.11,33.09-21.51,1-.56,2.31-1.21,2.19-2.47-.18-1.85-1.95-1.49-3.17-1.58-17.99-1.29-36.85-17.93-36.71-40.56.06-9.44-3.02-15.48-11.15-19.46-.89-.44-1.7-1.05-2.55-1.57-52.92-32.21-109.47-54.79-170.91-64.37-17.11-2.67-34.24-5.31-51.63-5.25-6.31-10.87-12.67-21.7-18.89-32.62-1.63-2.85-3.9-5.39-4.65-8.72.33-.06.65-.17.98-.18,55.86-.96,110.19,7.37,162.77,26.55,25.38,9.26,50.29,19.49,73.58,33.35,1.06.63,2.14,1.76,3.67.69-.06-.46.03-1.04-.21-1.38-.96-1.35-2.08-2.6-3.05-3.94-10.57-14.64-12.87-30.36-5.9-47.17,3.06-7.39,8.58-13.05,14.14-18.57,2.42-2.41,2.13-3.62-.72-5.08-5.63-2.89-11.17-5.96-16.77-8.92-48.27-25.53-99.18-43.02-153.39-50.57-22.84-3.18-45.78-3.93-68.79-3.9-31.51.04-62.42,4.22-92.75,12.73-14.85-8.7-28.13-19.55-41.39-30.42,25.33-9.06,51.42-15.08,77.97-19.08,34.6-5.21,69.33-5.62,104.17-2.37,32.25,3.01,64.09,7.85,95.05,17.76,37.09,11.87,72.98,26.4,106.09,47.14,3.58,2.24,6.01,1.97,9.28-.51,5.57-4.22,11.5-7.97,17.42-11.69,2.41-1.51,3.43-3.2,3.29-6.08-.96-20.12,16.36-36.8,30.69-38.79,20.93-2.9,42.14-4.82,62.64,3.27,2.2.87,4.32,1.37,6.78.75,54.71-13.62,110.03-17.79,166.08-10.71,38.03,4.8,75.02,13.62,110.55,28.18,23.93,9.81,47.27,20.8,68.52,35.72,2.65,1.86,4.28,2.01,7,.34,54.69-33.67,113.97-54.42,177.53-63.33,34.67-4.86,69.36-5.65,104.16-2.07,11.05,1.14,22,2.97,32.96,4.82,9.66,1.64,19.42,2.63,28.84,5.48,13.38,4.05,26.7,8.31,40.04,12.48.04,1.3-.68,2.07-1.7,2.81-11.27,8.18-22.5,16.41-33.74,24.63-1.62,1.19-3.34,2.15-5.39,2.38-3.47-1.13-6.86-2.55-10.4-3.34-40.25-8.93-80.98-12.04-122.12-9.59-25.17,1.5-49.8,6.26-74.31,12.1-26.66,6.35-52.49,14.82-77.38,26.3-22.12,10.21-43.58,21.54-63.51,35.63-5.25,3.71-5.37,4.03-.33,7.95,6.04,4.71,12.18,9.3,18.13,14.12,10.32,8.38,21.34,16.17,26.07,29.52.89,2.5,2.66,1.32,4.1.63,4.2-2.01,8.31-4.24,12.56-6.15,33.69-15.14,68.56-26.55,104.87-33.58,32.17-6.23,64.57-9.3,97.33-8.53-.57,4.32-3.76,7.29-5.67,10.91-4.87,9.23-10.05,18.3-15.09,27.44-.88,1.6-1.75,3.21-3.39,4.19-3.79-1.54-7.5-.04-11.27.16-16.81.86-33.51,2.7-50.07,5.58-37.27,6.47-73.12,17.58-107.3,33.9-14.29,6.82-28.2,14.32-41.29,23.28-4.44,3.04-7.01,6.87-6.44,12.58.36,3.63.06,7.32.09,10.99.12,16.88-6.06,30.48-20.74,39.59-9.6,5.96-20.37,5.45-31.04,5.38-2.57-.02-5.14,0-7.79,0,.02,1.39.86,1.71,1.53,2.12,12.54,7.57,25.32,14.78,36.44,24.45,1.98,1.72,3.47.97,5.29-.27,21.8-14.84,44.71-27.74,68.77-38.53,30.47-13.67,61.87-24.59,94.77-30.85-8.79,9.56-18.46,18.2-28.18,26.79-41.92,37.06-89.68,64.88-139.97,88.75-2.17,1.03-3.76.67-5.56-.31-3.39-2.9-6.69-5.91-10.17-8.69-27.9-22.24-59.23-38.35-92.52-50.64-33.31-12.29-67.88-18.97-103.32-21.45-36.5-2.56-72.62.1-108.27,8-35.43,7.85-68.88,21.32-100.36,39.21-17.54,9.97-34.58,21.01-49.52,34.85Zm98.78-295.94c-.29.19-.58.38-.87.57-.58.45-1.16.91-1.74,1.36-1.98.18-3.2,3.32-5.22,2.03-1.85-1.18-.69-3.69-.72-5.59-.07-5.16.12-10.32.04-15.48-.09-5.55-1.59-7.05-7.18-7.24-4.49-.15-8.99-.18-13.49-.11-6.25.1-7.91,1.88-7.9,8.17.03,12.16-.01,24.31.14,36.47.04,3.2-.69,5.88-3.05,8.07-10.79,7.81-21.61,15.58-32.35,23.45-7.92,5.8-16.31,11.01-23.43,17.84-2.89,2.77-5.17,5.84-1.7,9.93,4.38,5.17,7.66,6.05,12.37,2.7,21.58-15.34,43.25-30.56,64.64-46.17,17.89-13.06,35.47-26.54,53.07-39.99,2.83-2.16,5.13-2.67,7.9-.28,1.13.97,2.5,1.66,3.68,2.57,34.13,26.36,68.28,52.71,102.34,79.17,2.66,2.07,5.33,3.17,8.65,3.17,26.49-.02,52.97.01,79.46,0,1.66,0,3.36-.11,4.96-.49,5.06-1.2,6.89-5.31,4.52-9.96-2.21-4.35-6.17-5.19-10.54-5.23-24.32-.2-48.64-.43-72.96-.58-2.76-.02-5.02-.62-7.36-2.33-23.92-17.51-46.42-36.88-70.67-53.96-2.29-1.61-6.65-2.93-5.65-6.01,1.01-3.09,5.39-2.51,8.48-2.42,29.65.8,59.3.36,88.95.47,2.5,0,4.43.65,6.24,2.42,3.92,3.82,7.74,7.82,12.1,11.09,13.94,10.44,26.02,23.12,40.28,33.18,6.94,4.89,13.61,10.16,20.44,15.2,3.76,2.77,7.53,2.66,10.78-.75,3.55-3.73,1.4-7.05-1.27-10.09-1.31-1.49-2.77-2.89-4.32-4.14-16.13-13.15-32.32-26.23-48.43-39.42-7.09-5.8-13.93-11.9-21.06-17.65-3.45-2.77-6.95-6.19-11.91-5.33-5.97,1.03-11.95.82-17.94.82-27.49,0-54.98-.09-82.46-.03-4.3,0-8.82-.52-12.81,1.35-2.57,1.2-4.24.81-6.28-.82-4.55-3.64-9.14-7.25-13.91-10.59-4.96-3.49-9.14-3.42-13.77.26-9.79,7.76-19.43,15.68-29.14,23.54-.3.27-.61.54-.92.82Zm32.79,183.16v-.28c28.65,0,57.31.02,85.96-.01,9.35-.01,10.87-1.69,10.87-11.2,0-27.49-.02-54.97.1-82.46.01-3.12-.78-5.33-3.29-7.28-28.15-21.85-56.29-43.73-84.31-65.75-4.16-3.27-7.44-3.05-11.49.13-29.47,23.17-60.03,44.87-90.56,66.6-3.82,2.72-5.19,5.71-4.99,10.44,1.07,26.14.83,52.3.03,78.44-.27,8.96,1.71,11.38,10.73,11.37,28.99-.02,57.97,0,86.96,0Zm266.47.15v-.47c14.99,0,29.97.05,44.96-.02,8.05-.04,9.33-1.43,9.36-9.27.05-11.82-.27-23.67.34-35.46.29-5.66-2.1-9.13-6.03-12.21-2.06-1.61-4.27-3.02-6.4-4.54-12.49-8.89-24.97-17.8-37.48-26.68-2.18-1.55-4.36-3.11-7.25-1.18-15.98,10.7-32.25,20.97-47.5,32.74-2.46,1.9-3.51,4.18-3.5,7.28.03,13.65-.11,27.31-.11,40.96,0,7.63,1.36,8.86,9.16,8.85,14.82-.01,29.64,0,44.46,0Zm-152.93-44.61h-.05c0,12.49-.04,24.98.02,37.47.02,5.74,1.68,7.3,7.44,7.4,6.95.12,9.43-1.64,9.53-7.23.22-12.15.35-24.3.36-36.45,0-5.54,1.69-7.69,7.19-7.9,6.32-.24,12.65-.4,18.98-.4,7.73,0,10.41,2.84,10.34,10.7-.12,11.82-.22,23.65-.47,35.47-.08,3.8,1.43,5.56,5.25,5.51,5.99-.07,11.99.02,17.99-.04,5.95-.06,7.25-1.37,7.32-7.45.08-6.49.06-12.99.04-19.49-.06-17.15-.02-34.31-.26-51.46-.1-7.5-2.13-9.29-9.17-9.29-22.82.02-45.63.14-68.45-.01-4.65-.03-6.16,1.75-6.11,6.18.16,12.32.05,24.65.05,36.97Zm98.51-37.27c.07,1.03.13,1.86.19,2.69.43,6.15,2.09,7.11,7.45,3.99,3.58-2.08,7.05-4.38,10.47-6.72,10.85-7.42,21.63-14.94,32.49-22.34,2.28-1.55,4.53-3.3,7.62-1.02,3.98,2.93,8.33,5.36,12.38,8.21,11.54,8.12,22.97,16.39,34.51,24.52,6.53,4.61,13.15,9.1,19.77,13.57,3.97,2.68,7.19,1.59,9.83-2.16,3.4-4.83,3.12-7.78-1.83-11.4-12.09-8.82-24.31-17.46-36.5-26.14-11.01-7.84-22.21-15.42-32.98-23.57-4.26-3.23-7.79-3.56-12.13-.77-5.42,3.49-10.68,7.19-15.9,10.98-9.83,7.14-20.06,13.74-30.17,20.51-3.55,2.38-6.21,5.12-5.19,9.65Z"/>
  <path class="cls-4" d="m1506.81,1298.06c-13.34-4.17-26.66-8.43-40.04-12.48-9.41-2.85-19.18-3.84-28.84-5.48-10.96-1.86-21.91-3.69-32.96-4.82-34.8-3.58-69.48-2.79-104.16,2.07-63.57,8.92-122.85,29.66-177.53,63.33-2.72,1.67-4.36,1.52-7-.34-21.25-14.92-44.59-25.91-68.52-35.72-35.53-14.57-72.52-23.38-110.55-28.18-56.05-7.08-111.37-2.91-166.08,10.71-2.46.61-4.58.11-6.78-.75-20.5-8.09-41.7-6.17-62.64-3.27-14.33,1.98-31.65,18.67-30.69,38.79.14,2.88-.88,4.57-3.29,6.08-5.92,3.72-11.85,7.47-17.42,11.69-3.27,2.48-5.7,2.75-9.28.51-33.12-20.74-69-35.27-106.09-47.14-30.96-9.91-62.8-14.75-95.05-17.76-34.84-3.25-69.57-2.84-104.17,2.37-26.55,3.99-52.64,10.02-77.97,19.08-11.98-8.86-22.56-19.32-33.49-29.37-7.9-7.26-16.03-14.3-22.31-23.12,14.39-7.8,29.53-13.84,44.94-19.25,31.71-11.14,64.37-18.04,97.66-22.43,43.6-5.74,87.04-5.1,130.48,1.43,51.67,7.76,100.75,23.59,147.3,47.25,6.82,3.46,13.32,7.58,19.81,11.64,2.21,1.38,3.89,1.34,5.91-.06,24.29-16.92,51.26-28.28,79.08-37.78,58.73-20.05,119.14-29.22,181.12-25.81,63.77,3.51,124.67,18.86,181.96,47.47,9.52,4.75,18.58,10.44,27.76,15.83,1.9,1.12,3.36,1.72,5.41.32,29.09-19.9,61.79-31.79,95-42.45,33.91-10.89,68.77-16.96,104.2-20.16,33.35-3.01,66.61-1.76,99.72,2.48,40.49,5.19,79.79,15.25,117.44,31.28,8.52,3.63,17.02,7.31,25.16,11.78-10.81,13.31-23.82,24.36-36.64,35.6-5.36,4.7-10.93,9.15-16.33,13.8-1.54,1.33-3.09,2.49-5.12,2.87Z"/>
  <path class="cls-4" d="m649.9,1640.36c14.94-13.83,31.98-24.88,49.52-34.85,31.48-17.89,64.93-31.36,100.36-39.21,35.65-7.9,71.76-10.55,108.27-8,35.44,2.48,70.01,9.16,103.32,21.45,33.29,12.29,64.62,28.4,92.52,50.64,3.48,2.78,6.78,5.79,10.17,8.69-.52,4.01-3.75,5.31-6.85,6.47-31.79,11.94-64.04,22.38-97.2,29.83-22.91,5.15-46.21,7.68-69.49,10.48-24.88,2.99-49.8,3.17-74.75,2.66-27.13-.55-54.07-3.36-80.83-8.03-25.27-4.4-50.42-9.43-74.82-17.29-18.97-6.11-38.08-12.01-56.45-19.88-1.54-.66-3.15-1.18-3.78-2.97Z"/>
  <path class="cls-4" d="m1380.97,1392.94c-32.76-.77-65.16,2.3-97.33,8.53-36.31,7.03-71.18,18.45-104.87,33.58-4.25,1.91-8.35,4.14-12.56,6.15-1.45.69-3.22,1.87-4.1-.63-4.73-13.35-15.74-21.15-26.07-29.52-5.95-4.82-12.09-9.41-18.13-14.12-5.03-3.93-4.91-4.24.33-7.95,19.93-14.1,41.39-25.43,63.51-35.63,24.89-11.48,50.72-19.95,77.38-26.3,24.51-5.84,49.13-10.6,74.31-12.1,41.14-2.45,81.87.66,122.12,9.59,3.54.79,6.94,2.21,10.4,3.34-1.42,3.84-5.07,5.11-8.18,6.9-14.26,8.2-28.4,16.62-43.18,23.86-13,6.37-22.56,16.2-29.48,28.78-1.12,2.04-2.22,4.11-4.17,5.52Z"/>
  <path class="cls-4" d="m299.14,1327.16c30.33-8.51,61.24-12.7,92.75-12.73,23.01-.03,45.95.72,68.79,3.9,54.21,7.55,105.12,25.04,153.39,50.57,5.6,2.96,11.13,6.04,16.77,8.92,2.85,1.46,3.14,2.67.72,5.08-5.55,5.52-11.07,11.18-14.14,18.57-6.96,16.81-4.67,32.53,5.9,47.17.97,1.35,2.09,2.59,3.05,3.94.24.34.15.92.21,1.38-1.54,1.07-2.61-.06-3.67-.69-23.29-13.85-48.2-24.09-73.58-33.35-52.58-19.19-106.91-27.52-162.77-26.55-.33,0-.66.11-.98.18-1.13-1.83-2.52-3.55-3.35-5.5-5.28-12.52-14.61-20.96-26.27-27.51-17.22-9.68-34.99-18.36-51.78-28.8-1.94-1.21-4.25-2.07-5.03-4.57Z"/>
  <path class="cls-4" d="m409.1,1434.88c17.39-.06,34.52,2.58,51.63,5.25,61.44,9.58,117.99,32.16,170.91,64.37.85.52,1.66,1.13,2.55,1.57,8.13,3.97,11.21,10.02,11.15,19.46-.14,22.64,18.72,39.27,36.71,40.56,1.23.09,2.99-.27,3.17,1.58.12,1.26-1.19,1.92-2.19,2.47-11.53,6.4-22.85,13.12-33.09,21.51-3.42,2.8-6.72,3.08-10.7.5-9.17-5.97-17.91-12.59-27.52-17.89-32.62-18-66.12-33.85-102.52-42.77-9.54-2.34-19.03-4.88-28.54-7.33-8.8-5.2-14.83-13.32-21.29-20.83-17.24-20.05-33.56-40.85-48-63.05-1.07-1.65-2.53-3.16-2.28-5.39Z"/>
  <path class="cls-4" d="m1287.78,1523.86c-32.9,6.26-64.3,17.18-94.77,30.85-24.06,10.79-46.97,23.7-68.77,38.53-1.83,1.24-3.31,1.99-5.29.27-11.12-9.67-23.91-16.88-36.44-24.45-.67-.41-1.51-.72-1.53-2.12,2.65,0,5.22-.01,7.79,0,10.67.06,21.44.57,31.04-5.38,14.68-9.11,20.86-22.71,20.74-39.59-.03-3.66.28-7.36-.09-10.99-.57-5.71,2-9.54,6.44-12.58,13.09-8.96,27-16.46,41.29-23.28,34.18-16.32,70.03-27.43,107.3-33.9,16.55-2.87,33.26-4.72,50.07-5.58,3.77-.19,7.48-1.69,11.27-.16-1.18,5.74-4.72,10.31-7.94,14.87-17.12,24.16-34.56,48.09-55.92,68.82-1.67,1.62-3.45,3.12-5.18,4.68Z"/>
  <path class="cls-4" d="m1155.46,1100.29c-1.36.96-2.72,1.91-4.08,2.86-3.7.27-7.13,1.22-9.8,4.02-.08.2-.23.28-.44.24-6.14.19-12.16,1.03-17.97,3.11-1.16.08-2.32.16-3.48.24-1.51-1.03-3.01-1.05-4.49.05-2.16-.13-4.33-.26-6.49-.39-4.65-1.82-9.39-3.2-14.48-2.53-8.43-2.12-16.14-6.11-24.1-9.44-2.92-1.22-4.79-.77-7.06,1.32-14.12,12.99-29.91,23.48-47.09,32.1-12.87,6.46-25.97,12.44-39.76,16.24-22.16,6.11-44.76,11.05-67.86,10.74-25.4-.34-48.23-9.36-66.58-26.93-12.99-12.43-27.82-21.79-42.63-31.54-21.25-13.99-32.42-34.41-35.91-59.52-4.65-33.41.88-65.66,9.58-97.73,2-7.36,4.42-14.47,7.56-21.36,1.24-2.73.45-3.94-1.8-5.66-14.11-10.77-25.92-23.62-30.41-41.2-8.99-35.25,7.48-69.98,42.17-78.9,5.2-1.34,5.89-3.43,5.15-8.29-4.72-30.91,12.41-57.78,42.38-67.9,16-5.4,31.18-4.29,45.74,4.01,4.17,2.38,6.38,1.7,8.65-2.4,4.03-7.3,8.86-14.11,14.78-20.05,17.4-17.44,48.53-25.75,73.88-9.07,7.73,5.09,12.86,5.39,20.97-.54,27.33-20,57.5-20.2,87.18-6.44,26.32,12.2,41.6,34.08,42.94,63.41.39,8.59,4.26,11.31,9.79,15.44,13.36,9.98,19.85,23.58,18.85,40.54-1.28,21.87-11.75,38.4-29.13,51.02-4.31,3.13-8.82,6-13.03,9.26-7.63,5.92-8.85,10.37-4.72,19.09,3.21,6.78,6.43,13.49,8.15,20.86,5.54,23.7-1.42,43.35-19.1,59.52-7.68,7.03-16.33,12.6-26.11,16.35-3.11,1.19-6.11,2.65-9.14,4.05-6.29,2.9-10.42,7.12-10.86,14.68-1.43,24.53-14.95,42.01-33.43,56.61-20.18,15.94-43.23,26.23-67.39,34.15-18.72,6.14-37.96,10.13-57.72,11.15-2.21.11-4.26.81-6.19,1.82-3.6,1.89-6.27,4.6-6.07,8.97.21,4.56,2.54,7.86,6.84,9.58,6.25,2.5,12.8,2.02,19.26,1.57,19.21-1.31,37.9-5.12,56.16-11.31,21.5-7.29,41.86-16.81,60.63-29.62,2.7-1.84,5.24-3.93,7.85-5.89,1.16.06,1.86-.5,2.17-1.61.06-.19.18-.3.38-.33,6.2-2.71,10.95-7.03,14.33-12.89,13.41-15.62,23.69-32.72,25.46-53.83.25-2.93,1.83-4.31,4.47-5.26,22.19-8.05,40.43-21.52,52.43-41.89,10.48-17.78,13.03-37.43,8.82-57.82-1.39-6.73-3.18-13.35-6.64-19.29-1.98-3.41-1.01-4.85,2.1-6.55,16.15-8.86,28.29-21.63,35.6-38.56,3.39-7.85,6.42-16.01,6.19-24.83-.11-4.31,1.97-5.1,5.67-4.33,13.59,2.86,25.45,9.13,36.25,17.72,17.52,13.94,26.5,32.14,25.83,54.39-.44,14.72-6.07,27.95-16.37,38.76-2.56,2.69-2.45,4.13.44,6.05,24.34,16.24,28.09,55.98,11.14,79.75-13.15,18.45-30.9,29.15-53.22,32.4-2.63.38-4.3.92-4.2,4.18.7,23.95-9.88,42.05-29.11,55.58-1.39.07-2.54.51-2.94,2.03Zm-212.26-170.98c29.57-.59,58.81-3.96,87.45-11.55,7.99-2.12,16.38-3.57,23.04-9.12,3.77-3.14,5.14-8.73,3.24-12.62-2.13-4.37-7.1-6.65-12.22-5.41-2.58.62-5.07,1.65-7.63,2.37-35.53,10.06-72.13,12.26-108.7,14.64-.99.06-2.13.25-2.51-.98-.33-1.07.41-1.89,1.07-2.64,2.97-3.38,6.04-6.67,8.92-10.13,20.38-24.51,41.7-48.07,66.98-67.73,8.68-6.75,17.22-13.66,26.23-19.97,6.96-4.88,8.24-10.11,4.53-15.6-4.05-5.99-10.04-6.92-17.06-2.61-1.28.78-2.52,1.63-3.76,2.46-24.87,16.71-47.12,36.45-67.81,58.05-5.33,5.57-6.25,5.25-8.56-2.22-.2-.64-.32-1.3-.51-1.93-5.04-16.57-7.03-33.52-6.43-50.8.15-4.24-.66-8.12-4.7-10.27-3.74-1.99-7.71-2.15-11.41.26-3.21,2.09-5.17,5.02-5.81,8.91-2.29,14.05-.42,27.92,1.9,41.72,2.15,12.77,5.22,25.33,12.41,36.43,1.37,2.11.49,3.73-.97,5.35-18.93,20.95-34.4,44.51-50.81,67.37-3.4,4.73-3.6,4.63-6.33-.45-10.86-20.16-15.87-41.92-18.15-64.49-.72-7.15-5.08-11.32-11.04-11.22-5.81.1-10.49,5.17-10.69,12.22-.95,32.15,8.75,61.01,27.78,86.71,2.34,3.16,2.49,5.08.78,8.27-13.32,24.89-24.37,50.7-31.07,78.23-1.46,6.01-2.59,12.08-1.81,18.3.61,4.84,2.88,8.42,7.86,9.88,8.25,2.41,13.96-1.78,15.97-10.98,3.37-15.45,7.38-30.73,13.67-45.31,1.15-2.67,2.7-3.72,5.73-3.46,34.4,2.87,68.57,1.15,102.42-5.79,11.57-2.37,23.25-4.41,34.38-8.56,4.73-1.76,8.13-4.92,8.39-10.15.25-5.04-2.9-8.35-7.07-10.63-3.12-1.7-6.45-1.41-9.72-.39-26.41,8.25-53.64,11.63-81.08,13.75-12.81.99-25.64.47-38.47.52-3.37.01-4.34-1.05-2.41-4.13,1.95-3.1,3.75-6.29,5.53-9.5,10.02-18.06,19.88-36.2,31.93-53.05,1.95-2.72,4.18-3.86,7.53-3.8,9.66.17,19.33.06,28.99.06Z"/>
  <path class="cls-6" d="m332.54,819.94c-12.83,18.03-15.4,38.64-14.86,59.95.7,27.64,7.45,53.81,18.22,79.27,17.61,41.63,40.78,79.8,69.9,114.21,17.02,20.11,35.51,38.93,58.76,52.2,3.69,2.11,7.54,3.66,11.81,3.55,4.9-.12,8.69-2.44,10.65-6.98,1.85-4.31-.64-7.52-3.7-10-10.49-8.48-21.25-16.6-30.92-26.07-38.46-37.63-68.42-81-89.68-130.52-9.87-22.98-17.23-46.44-19.79-71.37-4.11-39.95,12.05-70.13,45.07-91.45,26.39-17.04,55.39-23.17,86.39-15.98,18.07,4.19,33.63,13.56,47.13,26.12,31.59,29.37,54.61,64.8,72.7,103.68,10.69,22.98,19.76,46.6,26.23,71.09,4.93,18.67,8.98,37.59,9.53,57.03.05,1.67.06,3.33.16,5,.41,7.06,3.83,11.5,9.08,11.84,4.99.32,11.07-4.88,12.16-10.77,1.59-8.59,1.58-17.26.51-25.9-5.85-47.04-19.21-91.65-41.37-133.77-15.64-29.72-34.6-57.01-56.98-81.78-18.59-20.58-41.52-35.37-68.24-43.68-11.29-3.51-22.94-3.89-34.66-3.04-4.85.35-5.38-.46-3.58-4.9,2.1-5.2,5.83-9.11,9.51-13.23,14.31-15.99,31.55-27.06,52.47-32.03,14.76-3.51,29.68-3.39,44.7-1.55,19.38,2.38,36.63,10.17,52.25,21.29,12.16,8.66,22.48,19.46,31.91,31.2,15.03,18.7,28.01,38.61,38.21,60.31,11.3,24.02,21.14,48.48,27.48,74.46,7.1,29.1,12.67,58.29,11.36,88.27-.85,19.62-3.01,39.25-12.77,57.04-8.92,16.26-20.93,29.56-37.24,38.64-8.59,4.78-17.8,7.52-27.77,6.67-3.7-.32-5.6.89-7.05,4.53-14.2,35.56-41.83,52.97-78.72,57.4-12.82,1.54-25.63,1.05-38.17-2.46-2.58-.72-4.31-.07-6.04,2.05-13.77,16.84-32.21,24.05-53.37,25.38-29.34,1.84-55.27-8.41-79.85-23.02-37.08-22.03-66.94-51.97-93.09-85.86-17.41-22.56-30.69-47.45-41.76-73.68-9.09-21.53-15.64-43.6-16.55-67.01-1.74-44.86,20.86-86.58,73.14-98.92,9.09-2.14,18.11-2.34,27.27-1.51,2.95,1.95,5.65,4.47,9.56,4.3Z"/>
  <path class="cls-1" d="m872.18,164.12c10.32.04,17.14,9.41,13.92,19.3-2.05,6.3-6.26,11.37-10.27,16.44-9.66,12.2-19.31,24.43-25.98,38.59-14.86,31.55-21.41,64.39-13.17,98.94,4.54,19.05,13.64,36.15,24.99,52.09,5.35,7.51,10.95,14.94,15.68,22.77,12.51,20.72,24.69,41.76,27.51,66.56,1.89,16.59,1.5,33-1.5,49.57-3.58,19.77-10.92,37.84-20.99,54.97-8.68,14.78-19.3,28.15-31.75,39.85-7.45,7-16.49,9.01-23.71,2.43-4.86-4.44-5.76-10.57-2.68-16.86,4.31-8.8,10.85-16.15,15.93-24.44,7.17-11.69,12.75-24.08,17.09-37.11,8.58-25.73,8.44-51.53.81-77.28-4.78-16.13-14.45-29.89-23-44.18-10.13-16.94-22.77-32.3-31.04-50.43-16.57-36.33-17.74-73.36-5.55-111.01,12.04-37.18,34.3-67.8,61.82-94.94,4.65-4.58,6.61-5.29,11.88-5.27Z"/>
  <path class="cls-1" d="m717.71,294.22c5.44.27,10.11,2.67,12.77,7.81,2.67,5.14,2.11,10.38-1.32,15.1-3.92,5.39-8.1,10.58-11.98,15.99-18.15,25.27-25.26,53.42-20.55,84.12,2.44,15.9,10.36,29.81,19.4,42.92,8.51,12.34,17.73,24.2,25.97,36.71,15.68,23.8,23.76,49.93,20.5,78.58-2.58,22.63-10.92,43.45-22.74,62.9-8.04,13.22-18.48,24.38-29.5,35.07-1.77,1.72-3.86,3.22-6.01,4.44-7.3,4.15-15.01,2.88-19.86-3.11-4.65-5.73-4.5-11.87,1.56-18.43,9.39-10.16,16.3-21.86,22.57-34.03,12.25-23.77,16.65-48.72,10.68-75.03-4.41-19.45-14.7-35.77-27.47-50.83-15.47-18.25-27.38-38.66-33.59-61.88-4.23-15.78-4.11-32.06-1.58-48.14,5.5-34.95,24.51-62.47,48.77-86.98,3.31-3.34,7.34-5.12,12.39-5.22Z"/>
  <path class="cls-1" d="m971.81,611.4c-.41-3.62,1.74-6.49,3.92-9.2,11.9-14.75,21.68-30.73,27.73-48.77,8.76-26.09,8.42-51.59-5.11-76.28-7.27-13.27-18-23.93-26.6-36.17-9.1-12.95-18.09-26.13-22.54-41.53-5.04-17.41-6.32-35.2-3.76-53.27,1.29-9.08,3.08-17.93,6.66-26.39,7.49-17.73,17.62-33.77,30.72-47.89,3.96-4.27,7.93-8.56,12.21-12.5,6.93-6.39,14.93-6.5,20.99-.65,5.95,5.73,5.91,13.14.1,20.57-10.38,13.28-20.06,27-26,42.97-11.19,30.12-7.92,58.8,8.79,86.04,7.06,11.51,15.48,22.09,23.32,33.06,8.66,12.1,15.74,25.13,21.4,38.87,7.9,19.19,7.74,39.15,3.28,58.9-6.53,28.9-20.86,53.79-41.9,74.72-3.88,3.86-7.79,7.83-12.86,10.2-9.51,4.44-20.37-2.22-20.35-12.65Z"/>
  <path class="cls-4" d="m332.54,819.94c-3.91.16-6.61-2.35-9.56-4.3.17-11.47,4.49-21.34,11.49-30.24,5.26-6.68,5.33-8.31-.91-14.26-21.43-20.4-46.47-26.88-75.07-18.79-6.4,1.81-12.55,4.36-19.05,5.98-14,3.49-25.47-.51-34.37-11.39-9.21-11.25-13.65-24.32-12.13-39,1.16-11.15,7.84-18.92,16.68-24.9,11.82-8,25.35-11.67,39.21-14.06,42.03-7.26,81.34.07,117.01,23.59,22.38,14.75,39.79,34.77,55.14,56.57,3.35,4.76,3,5.42-2.65,6.94-6.76,1.83-13.59,3.44-19.8,6.79-3.71,2-5.68,1.05-7.96-2.58-17.83-28.43-42.35-48.84-74.8-58.04-25.75-7.3-51.94-6.76-77.77.96-2.71.81-5.35,1.82-7.76,3.38-5.41,3.52-6.57,7.12-3.93,12.63,2.85,5.95,8.55,9.04,13.7,7,44.39-17.6,94.97-1.54,124.11,33.7,3.06,3.71,5.55,7.89,8.34,11.83,1.66,2.35,1.45,4.19-1.09,5.83-16.59,10.76-27.83,26.45-38.84,42.34Z"/>
  <path class="cls-6" d="m1346.58,876.09c.17,20.67-.62,41.32-2.64,61.88-3.62,36.95-10.06,73.42-20.03,109.21-4.15,14.92-9.18,29.57-14.26,44.2-6.63,19.12-14.64,37.61-24.58,55.26-1.72,3.05-3.42,6.12-5.95,8.59-4.91,4.78-10.48,5.22-15.77,1.29-5.62-4.18-6.82-8.96-2.85-15.27,13.65-21.68,20.51-46.13,29.29-69.84,8.41-22.74,14.24-46.14,18.9-69.83,4.86-24.68,8.15-49.6,10.51-74.66,2.42-25.74,3.87-51.5,2.87-77.34-.5-12.97-1.75-25.92-2.6-38.88-.45-6.86,3.71-12.33,10.34-13.84,7.5-1.7,12.21,1.29,13.08,8.92,1.2,10.59,2.09,21.22,2.88,31.84.48,6.47.64,12.98.77,19.47.13,6.33.03,12.66.03,18.99Z"/>
  <path class="cls-6" d="m1498.91,975.36c5.32.2,10.91.92,15.93,3.94,4.38,2.63,5.92,6.65,4.29,11.51-1.78,5.31-4.23,10.29-7.41,14.96-14.01,20.65-32.54,34.28-57.77,37.71-4.86.66-9.63.5-14.32-1.05-8.8-2.92-12.49-8.69-10.28-17.67,2.98-12.16,9.76-22.17,19.24-30.27,14.36-12.27,31.23-18.09,50.31-19.14Z"/>
  <path class="cls-6" d="m1391.36,710.77c.49,18.34-5.24,34.65-16.65,49.02-5.09,6.41-11.5,11.07-19.15,13.97-8.79,3.33-14.06,1.54-19.13-6.43-2.66-4.19-3.82-8.94-4.19-13.74-2.34-30.27,8.06-52.03,37.37-69.46,12.07-7.18,18.6-3.3,20.65,10.65.78,5.28,1.43,10.57,1.1,16Z"/>
  <path class="cls-6" d="m1483,962.54c-16.73-.09-22.99-8.41-17.2-24.28,9.92-27.17,38.82-52.29,73.29-45.63,8.29,1.6,11.33,6.01,8.75,14.17-7.35,23.17-21.6,40.69-43.53,51.36-6.52,3.17-13.9,4.39-21.31,4.38Z"/>
  <path class="cls-6" d="m1232.8,461.01c-.09,1.12-.15,3.47-.49,5.76-1.24,8.23-8.83,14.01-16.91,12.27-26.27-5.67-44.02-21.01-51.98-46.99-1.8-5.89-3.36-11.88-3.34-18.12.03-10.31,5.51-15.33,15.79-14.31,8.72.86,16.74,4.25,24.18,8.5,16.4,9.36,27.49,23.06,31.85,41.77.76,3.28.97,6.58.91,11.13Z"/>
  <path class="cls-6" d="m1241.99,639.1c32.04-.41,58.71,19.17,65.37,47.46,2.95,12.51-2.4,19.36-15.37,19.2-27.69-.35-49.02-11.8-62.44-36.55-3.2-5.9-4.51-12.47-5.39-19.08-.61-4.56,2.17-7.15,5.88-8.84,3.98-1.82,8.22-2.59,11.94-2.19Z"/>
  <path class="cls-6" d="m1261.98,714.46c19.59,1.46,36.4,8.6,48.7,24.51,7.12,9.22,10.56,19.93,11.28,31.48.49,7.84-3.52,12.9-11.18,14.85-4.98,1.27-9.81.85-14.78-.32-16.66-3.92-30.39-12.53-40.15-26.48-5.87-8.38-10.95-17.48-13.36-27.68-2.53-10.72-.18-14.1,10.52-16.05,3.02-.55,5.93-.55,8.97-.31Z"/>
  <path class="cls-6" d="m1553.58,805.1c2.85-.03,5.67.15,8.38,1.14,4.61,1.68,7.31,5.8,6.64,10.52-3.88,27.26-25.24,55.31-53.22,62.36-3.76.95-7.51,1.43-11.37,1.1-9.58-.8-15.24-7.01-14.57-16.6,1.01-14.46,7.73-26.37,17.45-36.7,12.92-13.73,30.58-21.87,46.7-21.82Z"/>
  <path class="cls-6" d="m1300.82,485.06c-.11,13.77-1.82,25.48-9.17,35.06-14.08,18.35-24.02,15.88-34.82,0-16.23-23.85-13.33-57.34,9.01-78.6,5.25-4.99,10.15-4.83,15.75-.1,4.91,4.15,8.35,9.42,11.2,15.03,4.85,9.56,8.46,19.51,8.04,28.61Z"/>
  <path class="cls-6" d="m1370.39,633.66c-.77,20.65-8.5,37.77-24.85,50.54-12.24,9.56-21.39,7.26-27.37-7.07-10.09-24.18-3.99-45.57,12.16-64.86,4.48-5.35,9.66-10.13,15.79-13.65,9.18-5.27,15.44-2.89,19.2,6.8,3.55,9.15,4.38,18.71,5.07,28.24Z"/>
  <path class="cls-6" d="m1426.8,988.49c-.49,12.24-1.93,22-8.03,30.55-6.15,8.62-16.27,10.68-24.62,4.01-9.61-7.67-16.6-17.21-20.26-29.35-5.13-16.98-3.99-33.51,1.54-50.02,2.47-7.37,7.96-10.36,15.53-8.42,4.93,1.26,9.46,3.55,13.11,7,13.89,13.1,21.94,29.03,22.74,46.22Z"/>
  <path class="cls-6" d="m1505,781.41c.84-27.92,27.65-59.83,56.08-61.15,11.96-.55,16.99,3.65,16.04,15.59-2.32,29.09-20.43,56.06-48.77,62.31-2.1.46-4.28.77-6.42.76-11.26-.03-17.21-6.24-16.94-17.52Z"/>
  <path class="cls-6" d="m1418.41,814.52c.12-7.09.84-12.36,2.21-17.52,1.69-6.32,5.06-8.75,11.57-8.74,7.81.02,14.93,2.56,20.87,7.26,19.71,15.58,29.04,35.87,26.41,61.19-.17,1.64-.61,3.28-1.14,4.85-4.78,14.15-14.16,17.52-26.44,9.14-13.61-9.29-24.52-20.95-30.25-36.79-2.47-6.82-2.96-13.96-3.23-19.38Z"/>
  <path class="cls-6" d="m1341.43,560.29c-.88,16.99-8.5,34.43-27.39,45.64-4.66,2.77-10.52,1.99-14.95-2.22-3.78-3.59-6.81-7.83-8.61-12.71-10.94-29.72,1.31-57.78,22.78-75.41,6.45-5.29,13.28-3.64,17.83,3.22,6.34,9.56,10.64,25,10.33,41.47Z"/>
  <path class="cls-6" d="m1399.25,894.1c-.06-7.72,1.16-15.22,3.57-22.57,2.68-8.2,7.91-10.81,16.19-8,13.24,4.49,22.76,13.49,29.57,25.3,9.08,15.75,12.88,32.39,6.32,50.19-5.07,13.76-14.24,16.63-26.83,8.5-18.14-11.71-28.94-31.74-28.82-53.42Z"/>
  <path class="cls-6" d="m1263.04,628.16c-23.36-1.14-41.68-10.25-55.23-28.75-4.51-6.15-7.92-12.7-9.23-20.15-1.35-7.72.96-10.83,8.63-12.13,26.59-4.52,49.78,1.76,67.9,22.49,5.38,6.15,8.75,13.74,10.03,21.94,1.21,7.73-4.32,13.96-13.87,15.88-2.91.59-5.95.54-8.24.73Z"/>
  <path class="cls-6" d="m1188.86,493.7c22.52.77,42.05,7.71,55.49,27.13,2.96,4.27,5.18,8.92,6.63,13.92,2.06,7.11.16,12.18-6.4,15.42-6.79,3.35-13.98,5.19-21.72,4.41-27.84-2.82-46.47-18.23-58.28-42.76-3.82-7.94-1.37-13.03,6.94-16,5.6-2,11.46-1.87,17.34-2.11Z"/>
  <path class="cls-6" d="m1494.89,769.53c-.05,5.18-.48,10.32-2.08,15.28-2.79,8.65-10.4,12.68-18.88,9.46-20.89-7.92-33.38-23.29-38.97-44.69-2.42-9.24-2.64-18.41-.13-27.63,2.47-9.08,7.64-12.07,16.8-9.75,23.92,6.05,43.81,32.4,43.27,57.33Z"/>
  <path class="cls-6" d="m1416.7,1057.44c.43,2.59-1.17,4.59-3.06,6.93-4.43,5.49-8.56,11.28-12.26,17.29-4.95,8.04-11.61,14.65-17.3,22.05-10.78,13.99-22.78,26.92-34.95,39.65-5.19,5.43-10.04,11.65-17.5,14.55-5.81,2.26-10.12.78-14.06-4.98-3.46-5.06-3.36-7.81,1.56-12.72,15.9-15.88,30.35-33.08,45.06-50.01,10.21-11.75,19-24.66,28.04-37.34,5.44-7.63,9.18-9.52,15.6-7.8,6.62,1.77,9.01,4.97,8.89,12.39Z"/>
  <path class="cls-6" d="m1518.38,663.03c.08,13.66,1.06,27.31-.18,40.96-.33,3.6-1.06,6.85-3.81,9.46-3.47,3.29-7.37,4.54-11.89,2.74-4.49-1.79-6.1-5.49-5.8-10.05,1.27-18.99.61-37.98-.26-56.95-.83-18.14-2.43-36.23-4.69-54.25-.46-3.65-.79-7.3.15-10.92,1.1-4.23,3.68-7.03,8-8.04,4.31-1,7.43,1.03,10.01,4.16,2.4,2.92,3.43,6.36,3.85,10.1,2.72,24.19,4.25,48.45,4.61,72.79Z"/>
  <path class="cls-6" d="m1570.8,659.45c0,10.66.11,21.32-.04,31.98-.09,6.48-3.97,10.74-10.11,11.69-5.24.81-9.76-2.04-10.84-7.24-.53-2.57-.51-5.3-.45-7.94.49-23-.01-45.95-3.25-68.78-1.38-9.71,3.86-15.89,12.53-15.27,5.7.41,9.61,5.2,10.35,12.66,1.41,14.27,2.03,28.57,1.8,42.91Z"/>
  <path class="cls-6" d="m1465.53,657.11c.65,9.48.9,18.97.07,28.44-.55,6.27-3.05,9.11-7.94,10.06-7.74,1.51-12.71-2.26-12.91-10.29-.28-11.81-.02-23.64-.87-35.44-.83-11.45-1.64-22.9-2.43-34.35-.16-2.32-.3-4.65.34-6.95,1.64-5.94,4.06-7.8,10.32-7.85,5.12-.04,8.15,2.24,9.63,7.65.66,2.39,1.01,4.9,1.17,7.37.92,13.78,1.75,27.57,2.61,41.36Z"/>
  <path class="cls-5" d="m1053.53,1061.79c-3.37,5.86-8.13,10.18-14.33,12.89,4.78-4.3,9.55-8.59,14.33-12.89Z"/>
  <path class="cls-5" d="m1123.16,1110.53c5.81-2.08,11.84-2.93,17.97-3.12-5.65,3-11.72,3.57-17.97,3.12Z"/>
  <path class="cls-5" d="m1094.22,1107.9c5.09-.67,9.83.72,14.48,2.53-4.87-.59-9.98.18-14.48-2.53Z"/>
  <path class="cls-5" d="m1141.58,1107.17c2.67-2.8,6.1-3.75,9.8-4.02-3.27,1.34-6.54,2.68-9.8,4.02Z"/>
  <path class="cls-5" d="m1155.46,1100.29c.4-1.52,1.55-1.95,2.94-2.03-.98.68-1.96,1.35-2.94,2.03Z"/>
  <path class="cls-5" d="m1115.19,1110.83c1.49-1.1,2.99-1.08,4.49-.05-1.49.47-2.99.51-4.49.05Z"/>
  <path class="cls-6" d="m1038.83,1075c-.3,1.1-1.01,1.66-2.17,1.61.73-.54,1.45-1.07,2.17-1.61Z"/>
  <path class="cls-6" d="m781.48,1527.58c-28.99,0-57.97,0-86.96,0-9.02,0-11-2.42-10.73-11.37.8-26.14,1.04-52.3-.03-78.44-.19-4.74,1.18-7.73,4.99-10.44,30.53-21.73,61.08-43.44,90.56-66.6,4.04-3.18,7.33-3.4,11.49-.13,28.03,22.02,56.16,43.9,84.31,65.75,2.51,1.95,3.31,4.16,3.29,7.28-.12,27.49-.11,54.97-.1,82.46,0,9.51-1.52,11.19-10.87,11.2-28.65.03-57.31.01-85.96.01v.28Zm22.55-68.08h.02c0-4.82.05-9.65-.01-14.47-.08-5.78-1.78-7.35-7.48-7.3-7.98.07-15.97.12-23.95.07-6.58-.04-8.11,1.35-8.16,8.16-.06,9.31.02,18.62-.05,27.93-.03,3.96,1.82,5.82,5.74,5.82,9.48-.01,18.96-.11,28.44.07,3.9.07,5.47-1.62,5.45-5.32-.03-4.99,0-9.98,0-14.97Z"/>
  <path class="cls-1" d="m746.07,1346.35c.58-.45,1.16-.91,1.74-1.36.63.32.97.22.87-.57.77.24,1.07-.03.92-.81,9.7-7.86,19.35-15.79,29.14-23.54,4.64-3.67,8.81-3.74,13.77-.26,4.77,3.35,9.36,6.96,13.91,10.59,2.03,1.63,3.7,2.02,6.28.82,3.99-1.87,8.51-1.34,12.81-1.35,27.49-.05,54.98.02,82.46.03,5.99,0,11.96.21,17.94-.82,4.96-.86,8.47,2.56,11.91,5.33,7.13,5.74,13.98,11.84,21.06,17.65,16.11,13.18,32.3,26.26,48.43,39.42,1.54,1.26,3,2.65,4.32,4.14,2.67,3.04,4.82,6.36,1.27,10.09-3.25,3.41-7.02,3.52-10.78.75-6.83-5.04-13.51-10.3-20.44-15.2-14.25-10.06-26.33-22.74-40.28-33.18-4.36-3.27-8.18-7.27-12.1-11.09-1.81-1.77-3.74-2.41-6.24-2.42-29.65-.11-59.31.32-88.95-.47-3.08-.08-7.46-.67-8.48,2.42-1.01,3.07,3.36,4.4,5.65,6.01,24.25,17.08,46.75,36.45,70.67,53.96,2.34,1.71,4.6,2.31,7.36,2.33,24.32.15,48.64.38,72.96.58,4.37.04,8.33.88,10.54,5.23,2.36,4.64.54,8.76-4.52,9.96-1.6.38-3.3.49-4.96.49-26.49.02-52.97-.02-79.46,0-3.32,0-5.98-1.1-8.65-3.17-34.06-26.46-68.21-52.81-102.34-79.17-1.18-.91-2.55-1.6-3.68-2.57-2.77-2.39-5.07-1.88-7.9.28-17.6,13.44-35.18,26.93-53.07,39.99-21.39,15.61-43.06,30.83-64.64,46.17-4.7,3.34-7.99,2.47-12.37-2.7-3.46-4.09-1.18-7.16,1.7-9.93,7.12-6.84,15.51-12.04,23.43-17.84,10.74-7.87,21.56-15.64,32.35-23.45,4.48-.25,9.48,1.29,12.53-3.84.32-.54,1.62-.95,2.27-.76,4.11,1.26,6.94-1.07,9.89-3.23,1.49-1.09,3-2.1,5.04-1.18,1.88.85,2.52-.43,2.45-1.91-.25-5.82,2.06-10.74,5.19-15.4Z"/>
  <path class="cls-6" d="m1047.95,1527.73c-14.82,0-29.64-.01-44.46,0-7.79,0-9.16-1.22-9.16-8.85,0-13.65.14-27.31.11-40.96,0-3.1,1.05-5.38,3.5-7.28,15.24-11.77,31.52-22.04,47.5-32.74,2.89-1.93,5.07-.37,7.25,1.18,12.51,8.87,24.99,17.78,37.48,26.68,2.13,1.52,4.35,2.92,6.4,4.54,3.93,3.09,6.32,6.56,6.03,12.21-.61,11.79-.29,23.64-.34,35.46-.03,7.85-1.31,9.23-9.36,9.27-14.99.08-29.97.02-44.96.02v.47Zm-11.93-40.1c.17,11.31-2.47,11.6,11.08,11.38,13.54-.21,11.43,1.02,11.87-11.89.39-11.49.28-11.52-11.33-11.19-13.36.37-11.64-.19-11.62,11.7Z"/>
  <path class="cls-6" d="m895.02,1483.13c0-12.32.1-24.65-.05-36.97-.06-4.43,1.45-6.21,6.11-6.18,22.82.15,45.63.03,68.45.01,7.03,0,9.07,1.79,9.17,9.29.23,17.15.2,34.31.26,51.46.02,6.5.04,12.99-.04,19.49-.07,6.08-1.37,7.39-7.32,7.45-5.99.06-11.99-.04-17.99.04-3.83.05-5.33-1.71-5.25-5.51.25-11.82.35-23.64.47-35.47.08-7.87-2.61-10.71-10.34-10.7-6.33,0-12.66.16-18.98.4-5.5.2-7.19,2.36-7.19,7.9,0,12.15-.14,24.3-.36,36.45-.1,5.59-2.58,7.35-9.53,7.23-5.76-.1-7.41-1.66-7.44-7.4-.05-12.49-.02-24.98-.02-37.47h.05Z"/>
  <path class="cls-1" d="m993.52,1445.86c-1.01-4.53,1.64-7.28,5.19-9.65,10.1-6.77,20.34-13.36,30.17-20.51,5.22-3.79,10.47-7.49,15.9-10.98,4.34-2.79,7.87-2.45,12.13.77,10.77,8.15,21.97,15.73,32.98,23.57,12.19,8.68,24.41,17.33,36.5,26.14,4.96,3.61,5.23,6.57,1.83,11.4-2.64,3.75-5.86,4.84-9.83,2.16-6.63-4.47-13.24-8.96-19.77-13.57-11.53-8.13-22.97-16.4-34.51-24.52-4.05-2.85-8.4-5.28-12.38-8.21-3.09-2.27-5.34-.53-7.62,1.02-10.86,7.4-21.64,14.92-32.49,22.34-3.42,2.34-6.89,4.64-10.47,6.72-5.37,3.12-7.02,2.16-7.45-3.99-.06-.83-.12-1.66-.19-2.69Z"/>
  <path class="cls-6" d="m746.07,1346.35c-3.13,4.66-5.44,9.58-5.19,15.4.06,1.49-.57,2.76-2.45,1.91-2.03-.92-3.55.09-5.04,1.18-2.95,2.16-5.78,4.49-9.89,3.23-.64-.2-1.95.22-2.27.76-3.05,5.13-8.05,3.59-12.53,3.84,2.35-2.19,3.08-4.87,3.04-8.07-.15-12.15-.11-24.31-.14-36.47-.01-6.3,1.64-8.07,7.9-8.17,4.49-.07,8.99-.04,13.49.11,5.6.19,7.1,1.69,7.18,7.24.08,5.16-.12,10.32-.04,15.48.03,1.9-1.14,4.41.72,5.59,2.02,1.29,3.23-1.85,5.22-2.03Z"/>
  <path class="cls-2" d="m749.6,1343.6c.15.78-.15,1.06-.91.81.3-.27.61-.54.91-.81Z"/>
  <path class="cls-2" d="m748.68,1344.42c.1.78-.24.89-.87.57.29-.19.58-.38.87-.57Z"/>
  <path class="cls-3" d="m943.2,929.31c-9.66,0-19.33.11-28.99-.06-3.35-.06-5.58,1.08-7.53,3.8-12.04,16.85-21.91,34.99-31.93,53.05-1.78,3.2-3.59,6.39-5.53,9.5-1.93,3.08-.96,4.14,2.41,4.13,12.82-.05,25.66.46,38.47-.52,27.45-2.11,54.68-5.5,81.08-13.75,3.27-1.02,6.61-1.32,9.72.39,4.17,2.28,7.32,5.59,7.07,10.63-.26,5.23-3.66,8.39-8.39,10.15-11.14,4.15-22.81,6.19-34.38,8.56-33.84,6.94-68.01,8.66-102.42,5.79-3.03-.25-4.58.8-5.73,3.46-6.3,14.59-10.3,29.87-13.67,45.31-2.01,9.2-7.72,13.39-15.97,10.98-4.99-1.46-7.26-5.04-7.86-9.88-.78-6.22.35-12.29,1.81-18.3,6.69-27.53,17.75-53.34,31.07-78.23,1.7-3.19,1.55-5.11-.78-8.27-19.03-25.71-28.72-54.56-27.78-86.71.21-7.04,4.89-12.12,10.69-12.22,5.96-.1,10.32,4.07,11.04,11.22,2.28,22.57,7.29,44.34,18.15,64.49,2.74,5.08,2.93,5.18,6.33.45,16.41-22.85,31.88-46.42,50.81-67.37,1.46-1.61,2.34-3.24.97-5.35-7.2-11.1-10.26-23.66-12.41-36.43-2.32-13.8-4.19-27.67-1.9-41.72.63-3.89,2.6-6.82,5.81-8.91,3.7-2.41,7.67-2.25,11.41-.26,4.04,2.15,4.85,6.03,4.7,10.27-.6,17.28,1.39,34.23,6.43,50.8.19.64.31,1.3.51,1.93,2.3,7.47,3.22,7.79,8.56,2.22,20.68-21.6,42.94-41.35,67.81-58.05,1.24-.84,2.49-1.68,3.76-2.46,7.01-4.31,13-3.39,17.06,2.61,3.71,5.49,2.44,10.73-4.53,15.6-9.02,6.31-17.56,13.23-26.23,19.97-25.28,19.66-46.6,43.22-66.98,67.73-2.87,3.46-5.95,6.75-8.92,10.13-.66.75-1.4,1.57-1.07,2.64.38,1.23,1.53,1.05,2.51.98,36.57-2.38,73.17-4.58,108.7-14.64,2.56-.73,5.05-1.75,7.63-2.37,5.12-1.24,10.09,1.04,12.22,5.41,1.9,3.89.53,9.48-3.24,12.62-6.67,5.55-15.06,7-23.04,9.12-28.64,7.59-57.88,10.96-87.45,11.55Z"/>
  <path class="cls-3" d="m804.02,1459.5c0,4.99-.02,9.98,0,14.97.02,3.7-1.55,5.39-5.45,5.32-9.48-.17-18.96-.08-28.44-.07-3.92,0-5.77-1.86-5.74-5.82.07-9.31-.01-18.62.05-27.93.05-6.81,1.57-8.2,8.16-8.16,7.98.05,15.97,0,23.95-.07,5.7-.05,7.4,1.52,7.48,7.3.06,4.82.01,9.65.01,14.47h-.02Z"/>
  <path class="cls-3" d="m1036.01,1487.63c-.02-11.89-1.74-11.33,11.62-11.7,11.61-.32,11.72-.3,11.33,11.19-.44,12.92,1.68,11.68-11.87,11.89-13.55.21-10.91-.07-11.08-11.38Z"/>
</svg>